<svg width="256" height="256" viewBox="0 0 72 72" fill="none" xmlns="http://www.w3.org/2000/svg">
  <defs>
    <linearGradient id="bg" x1="10" y1="8" x2="62" y2="64" gradientUnits="userSpaceOnUse">
      <stop offset="0" stop-color="#1e1b4b"/>
      <stop offset="0.55" stop-color="#3730a3"/>
      <stop offset="1" stop-color="#4f46e5"/>
    </linearGradient>
    <radialGradient id="glow" cx="0" cy="0" r="1" gradientUnits="userSpaceOnUse" gradientTransform="translate(54 18) rotate(136.169) scale(31.1127)">
      <stop stop-color="#22d3ee" stop-opacity="0.65"/>
      <stop offset="1" stop-color="#22d3ee" stop-opacity="0"/>
    </radialGradient>
  </defs>
  <rect x="4" y="4" width="64" height="64" rx="18" fill="url(#bg)"/>
  <rect x="4" y="4" width="64" height="64" rx="18" fill="url(#glow)"/>
  <rect x="5" y="5" width="62" height="62" rx="17" stroke="rgba(255,255,255,0.12)"/>
  <rect x="18" y="17" width="27" height="33" rx="8" fill="rgba(226,232,240,0.08)" stroke="rgba(226,232,240,0.18)"/>
  <rect x="24" y="20" width="29" height="36" rx="9" fill="#f8fafc"/>
  <path d="M45 20 L53 28 H47C45.895 28 45 27.105 45 26V20Z" fill="#c7d2fe"/>
  <line x1="30" y1="31" x2="45" y2="31" stroke="#4338ca" stroke-width="2.7" stroke-linecap="round"/>
  <line x1="30" y1="37" x2="41" y2="37" stroke="#6366f1" stroke-width="2.7" stroke-linecap="round"/>
  <path d="M30 46 L36 40 L40 44 L47 36" stroke="#06b6d4" stroke-width="3.4" stroke-linecap="round" stroke-linejoin="round"/>
  <circle cx="47" cy="36" r="2.4" fill="#06b6d4"/>
</svg>
